<svg width="25" height="24" viewBox="0 0 25 24" fill="none" xmlns="http://www.w3.org/2000/svg">
<path fill-rule="evenodd" clip-rule="evenodd" d="M9.04566 3.88583L8.59999 5H5.79999C4.14313 5 2.79999 6.34315 2.79999 8V19C2.79999 20.6569 4.14313 22 5.79999 22H19.8C21.4568 22 22.8 20.6569 22.8 19V8C22.8 6.34315 21.4568 5 19.8 5H17L16.5543 3.88583C16.0987 2.74685 14.9956 2 13.7689 2H11.8311C10.6044 2 9.50125 2.74685 9.04566 3.88583ZM13.7689 4H11.8311C11.4222 4 11.0545 4.24895 10.9026 4.62861L10.7541 5H14.8459L14.6974 4.62861C14.5455 4.24895 14.1778 4 13.7689 4ZM19.8 7C20.3523 7 20.8 7.44771 20.8 8V11C20.8 11.5523 20.3523 12 19.8 12H15.5324C15.1866 11.4022 14.5403 11 13.8 11H11.8C11.0597 11 10.4134 11.4022 10.0676 12H5.79999C5.2477 12 4.79999 11.5523 4.79999 11V8C4.79999 7.44772 5.2477 7 5.79999 7H19.8ZM10.0676 14H5.79999C5.44935 14 5.11277 13.9398 4.79999 13.8293V19C4.79999 19.5523 5.2477 20 5.79999 20H19.8C20.3523 20 20.8 19.5523 20.8 19V13.8293C20.4872 13.9398 20.1506 14 19.8 14H15.5324C15.1866 14.5978 14.5403 15 13.8 15H11.8C11.0597 15 10.4134 14.5978 10.0676 14Z" fill="#8E949D"/>
</svg>
