<svg width="24" height="24" viewBox="0 0 24 24" fill="none" xmlns="http://www.w3.org/2000/svg">
<path fill-rule="evenodd" clip-rule="evenodd" d="M12 2.39999C6.69806 2.39999 2.39999 6.69806 2.39999 12C2.39999 17.3019 6.69806 21.6 12 21.6C17.3019 21.6 21.6 17.3019 21.6 12C21.6 6.69806 17.3019 2.39999 12 2.39999ZM16.7072 8.29284C17.0977 8.68337 17.0977 9.31653 16.7072 9.70706L11.4143 15C10.6333 15.781 9.36693 15.781 8.58589 15L6.79299 13.2071C6.40247 12.8165 6.40247 12.1834 6.79299 11.7928C7.18352 11.4023 7.81668 11.4023 8.2072 11.7928L10.0001 13.5857L15.293 8.29284C15.6835 7.90232 16.3167 7.90232 16.7072 8.29284Z" fill="#0E7E4F"/>
</svg>
