<svg width="25" height="24" viewBox="0 0 25 24" fill="none" xmlns="http://www.w3.org/2000/svg">
<path fill-rule="evenodd" clip-rule="evenodd" d="M20.2 4C20.2 3.44772 19.7523 3 19.2 3C16.4386 3 14.2 5.23858 14.2 8V14C14.2 14.5523 14.6477 15 15.2 15H18.2L18.2 20C18.2 20.5523 18.6477 21 19.2 21C19.7523 21 20.2 20.5523 20.2 20L20.2 4ZM16.2 13H18.2L18.2 5.17071C17.0348 5.58254 16.2 6.69378 16.2 8L16.2 13Z" fill="#8E949D"/>
<path fill-rule="evenodd" clip-rule="evenodd" d="M6.20001 4C6.20001 3.44772 5.7523 3 5.20001 3C4.64773 3 4.20001 3.44772 4.20001 4V9C4.20001 10.8638 5.47479 12.4299 7.20001 12.874V20C7.20001 20.5523 7.64773 21 8.20001 21C8.7523 21 9.20001 20.5523 9.20001 20V12.874C10.9252 12.4299 12.2 10.8638 12.2 9V4C12.2 3.44772 11.7523 3 11.2 3C10.6477 3 10.2 3.44772 10.2 4V7H9.20001V4C9.20001 3.44772 8.7523 3 8.20001 3C7.64773 3 7.20001 3.44772 7.20001 4V7H6.20001V4ZM6.20001 9C6.20001 10.1046 7.09544 11 8.20001 11C9.30458 11 10.2 10.1046 10.2 9H6.20001Z" fill="#8E949D"/>
</svg>
